<svg width="155" height="40" viewBox="0 0 155 40" fill="none" xmlns="http://www.w3.org/2000/svg">
<path d="M66.1041 22.952C66.1601 23.512 66.2908 24.072 66.4961 24.632C66.7201 25.192 67.0561 25.9667 67.5041 26.956C67.8028 27.572 68.0735 28.188 68.3161 28.804C68.3161 29.028 68.2321 29.1773 68.0641 29.252C67.9148 29.3267 67.6908 29.364 67.3921 29.364C67.2241 29.364 67.0655 29.336 66.9161 29.28C66.7668 29.224 66.6735 29.1867 66.6361 29.168C66.3748 29.0373 66.1415 28.972 65.9361 28.972C65.8428 28.972 65.7028 29 65.5161 29.056C65.3481 29.112 65.2268 29.14 65.1521 29.14C65.0588 29.14 64.9561 29.028 64.8441 28.804C64.7508 28.5613 64.6295 28.2067 64.4801 27.74C64.4241 27.6093 64.3681 27.4787 64.3121 27.348C64.2748 27.1987 64.2281 27.0493 64.1721 26.9C64.1348 26.8253 64.0135 26.5173 63.8081 25.976C63.6028 25.4347 63.3415 24.968 63.0241 24.576C62.7255 24.184 62.4175 23.988 62.1001 23.988C61.7268 23.988 61.3721 24.016 61.0361 24.072C60.9055 24.0907 60.7468 24.1093 60.5601 24.128C60.3921 24.1467 60.1868 24.156 59.9441 24.156C59.4215 24.156 58.8801 24.128 58.3201 24.072C57.2001 24.016 56.5748 23.988 56.4441 23.988C56.2575 24.6973 56.0988 25.2387 55.9681 25.612C55.8375 25.9667 55.5855 26.5733 55.2121 27.432C55.1375 27.6187 55.0815 27.8613 55.0441 28.16C54.9881 28.552 54.9041 28.8507 54.7921 29.056C54.6988 29.2613 54.5308 29.364 54.2881 29.364C53.9521 29.364 53.6628 29.336 53.4201 29.28C53.1775 29.2427 52.8508 29.1493 52.4401 29C52.4401 28.6827 52.5055 28.328 52.6361 27.936C52.7668 27.5253 52.9628 26.9933 53.2241 26.34L53.4761 25.724C53.6255 25.276 53.7748 24.772 53.9241 24.212C54.0921 23.652 54.2041 23.2693 54.2601 23.064C54.5401 21.888 54.8015 20.9827 55.0441 20.348C55.1748 19.9933 55.3708 19.5173 55.6321 18.92C55.6881 18.7707 55.8095 18.4813 55.9961 18.052C56.1828 17.604 56.3321 17.156 56.4441 16.708L56.5841 16.568C56.6215 16.4373 56.6681 16.1947 56.7241 15.84C56.7801 15.4667 56.8735 15.1587 57.0041 14.916C57.1348 14.6733 57.3028 14.552 57.5081 14.552C57.5081 14.2533 57.6761 13.544 58.0121 12.424C58.3668 11.304 58.6375 10.6693 58.8241 10.52C59.7948 10.52 60.4388 10.5387 60.7561 10.576C61.0921 10.6133 61.3535 10.744 61.5401 10.968C61.7268 11.192 61.9228 11.6213 62.1281 12.256L62.4641 12.928L62.4361 13.18C62.5481 13.18 62.6321 13.2547 62.6881 13.404C62.7628 13.5533 62.8375 13.7773 62.9121 14.076C62.9868 14.3933 63.0615 14.664 63.1361 14.888C63.2295 15.0933 63.3508 15.252 63.5001 15.364C63.4628 15.364 63.4255 15.3827 63.3881 15.42C63.3508 15.4573 63.3228 15.4853 63.3041 15.504C63.3041 15.6347 63.3601 15.8307 63.4721 16.092C63.6028 16.316 63.6681 16.5213 63.6681 16.708H64.0321C63.9948 16.7453 63.9575 16.8013 63.9201 16.876C63.8828 16.9507 63.8641 17.016 63.8641 17.072C63.8641 17.1653 63.9761 17.3613 64.2001 17.66C64.4241 17.996 64.5361 18.2013 64.5361 18.276L64.6481 18.892C64.7601 19.6573 64.9001 20.208 65.0681 20.544C65.2175 20.824 65.3761 21.0293 65.5441 21.16C65.6748 21.272 65.7775 21.4307 65.8521 21.636C65.9455 21.8413 66.0295 22.28 66.1041 22.952ZM58.3201 15.364C57.8348 15.364 57.5921 15.5693 57.5921 15.98L57.6201 16.176C58.0868 16.0453 58.5255 15.812 58.9361 15.476C59.3468 15.14 59.6641 14.748 59.8881 14.3L61.9601 13.6C61.9601 12.9653 61.7735 12.4707 61.4001 12.116C61.0455 11.7613 60.8681 11.5747 60.8681 11.556L60.5321 11.584C60.4761 11.584 60.3175 11.528 60.0561 11.416C59.8135 11.2853 59.6361 11.22 59.5241 11.22C59.3561 11.22 59.2348 11.3133 59.1601 11.5C59.0855 11.6867 59.0201 11.9573 58.9641 12.312C58.9455 12.5173 58.9081 12.7133 58.8521 12.9C58.8148 13.0867 58.7495 13.208 58.6561 13.264H59.3561C59.2815 13.3947 59.1788 13.5067 59.0481 13.6C58.9361 13.6747 58.8241 13.74 58.7121 13.796C58.4508 13.9267 58.2548 14.076 58.1241 14.244C58.0121 14.3933 57.9561 14.6453 57.9561 15C57.9561 15.1307 57.9748 15.224 58.0121 15.28C58.0681 15.336 58.1708 15.364 58.3201 15.364ZM60.2521 14.468C60.2521 14.5613 60.3081 14.7107 60.4201 14.916C60.5508 15.1027 60.6535 15.196 60.7281 15.196C60.8588 15.196 61.1108 14.9907 61.4841 14.58C61.7081 14.3187 61.9228 14.1133 62.1281 13.964C61.2881 13.964 60.6628 14.132 60.2521 14.468ZM62.2961 19.144C62.9868 18.5653 63.3321 17.9867 63.3321 17.408C63.3321 17.072 63.3041 16.7827 63.2481 16.54C63.2108 16.2973 63.0895 16.176 62.8841 16.176C62.8095 16.1947 62.7161 16.2413 62.6041 16.316C62.4921 16.3907 62.3895 16.4747 62.2961 16.568L62.9681 15.868C62.9681 15.7933 62.8655 15.5133 62.6601 15.028C62.4735 14.5427 62.3521 14.3 62.2961 14.3H62.1281L60.9241 15.504L60.8961 15.616C60.8961 15.7093 60.9521 15.8027 61.0641 15.896C61.1948 15.9707 61.3161 16.0173 61.4281 16.036C61.3348 16.0547 61.2788 16.1107 61.2601 16.204C61.2415 16.2973 61.2321 16.3907 61.2321 16.484C61.2321 16.8947 61.3255 17.1 61.5121 17.1C61.5681 17.1 61.7175 17.0253 61.9601 16.876C61.9601 17.0067 61.9228 17.1653 61.8481 17.352C61.7921 17.5387 61.7641 17.688 61.7641 17.8C61.8948 17.8 61.9975 17.7907 62.0721 17.772C62.1655 17.7533 62.2495 17.7347 62.3241 17.716C62.5855 17.6413 62.8001 17.604 62.9681 17.604C62.9121 17.716 62.7908 17.8093 62.6041 17.884C62.4361 17.94 62.3055 17.996 62.2121 18.052C62.1375 18.108 62.1001 18.2293 62.1001 18.416V18.584C62.1001 18.8267 62.1655 19.0133 62.2961 19.144ZM58.4881 16.708C58.4321 16.8573 58.3388 16.96 58.2081 17.016C58.0775 17.072 57.8908 17.1187 57.6481 17.156C57.3495 17.212 57.1255 17.2867 56.9761 17.38C56.8455 17.4733 56.7801 17.66 56.7801 17.94C56.7801 17.9773 56.7988 18.0147 56.8361 18.052C56.8921 18.0893 56.9295 18.108 56.9481 18.108C58.4788 17.212 59.2441 16.4 59.2441 15.672H59.0481C58.9361 15.672 58.6281 15.8493 58.1241 16.204C57.6388 16.5587 57.3961 16.792 57.3961 16.904C57.5455 16.904 57.7321 16.876 57.9561 16.82C58.1801 16.7453 58.3575 16.708 58.4881 16.708ZM59.8881 15.868C59.7388 16.764 59.4775 17.6693 59.1041 18.584C58.7495 19.48 58.3201 20.3013 57.8161 21.048L57.7881 21.132C57.7881 21.412 58.1335 21.552 58.8241 21.552C59.1788 21.552 59.4961 21.5427 59.7761 21.524C60.0561 21.5053 60.2895 21.4867 60.4761 21.468C61.2228 21.3933 61.7828 21.356 62.1561 21.356C62.1561 21.02 61.9788 20.4413 61.6241 19.62C61.5868 19.5453 61.5121 19.3773 61.4001 19.116C61.2881 18.836 61.2321 18.6213 61.2321 18.472L59.8881 15.868ZM58.3201 17.38C58.1148 17.6227 57.7881 17.8933 57.3401 18.192C57.1721 18.304 57.0228 18.416 56.8921 18.528C56.7615 18.64 56.6961 18.7427 56.6961 18.836C57.3121 18.836 57.7321 18.752 57.9561 18.584C58.1801 18.3973 58.3575 17.996 58.4881 17.38H58.3201ZM62.6041 19.396C62.6041 19.396 62.6228 19.4427 62.6601 19.536C62.6975 19.6107 62.7535 19.648 62.8281 19.648C62.9401 19.648 63.1175 19.62 63.3601 19.564C63.6028 19.508 63.7708 19.48 63.8641 19.48L62.8281 20.012L62.8001 20.068C62.8001 20.1613 62.8375 20.264 62.9121 20.376C62.9868 20.488 63.0428 20.544 63.0801 20.544C63.3601 20.544 63.5935 20.4227 63.7801 20.18C63.9668 19.9373 64.0601 19.676 64.0601 19.396C64.0601 19.1347 64.0135 18.8547 63.9201 18.556C63.8268 18.2573 63.6868 18.108 63.5001 18.108C63.3695 18.276 63.1455 18.6213 62.8281 19.144C62.6788 19.2933 62.6041 19.3773 62.6041 19.396ZM56.5841 19.144C56.4161 19.144 56.2855 19.2373 56.1921 19.424C56.1175 19.592 56.0521 19.7693 55.9961 19.956C55.9401 20.1427 55.9028 20.2733 55.8841 20.348C56.0521 20.2547 56.3415 20.0867 56.7521 19.844C57.1815 19.5827 57.5361 19.3493 57.8161 19.144H56.5841ZM57.6201 19.648C57.5455 19.6853 57.4241 19.7413 57.2561 19.816C57.0881 19.8907 56.9575 19.984 56.8641 20.096C56.7708 20.1893 56.7241 20.3107 56.7241 20.46C56.9108 20.46 57.1068 20.3853 57.3121 20.236C57.5361 20.0867 57.6481 19.928 57.6481 19.76L57.6201 19.648ZM63.3041 23.456C63.3788 23.6053 63.4535 23.708 63.5281 23.764C63.6028 23.8013 63.7148 23.82 63.8641 23.82C64.1815 23.82 64.4335 23.6893 64.6201 23.428C64.8068 23.148 64.9001 22.8493 64.9001 22.532C64.9001 22.196 64.8721 21.8973 64.8161 21.636C64.7601 21.3747 64.6855 21.104 64.5921 20.824C64.4988 20.5253 64.4335 20.3107 64.3961 20.18C64.1721 20.18 63.9575 20.264 63.7521 20.432C63.5468 20.6 63.3975 20.8053 63.3041 21.048H64.1721V21.216C64.0975 21.3093 63.8641 21.58 63.4721 22.028C63.0801 22.4573 62.8001 22.8213 62.6321 23.12L62.9681 23.148C63.1921 23.148 63.4908 23.0547 63.8641 22.868C64.2375 22.7 64.5175 22.616 64.7041 22.616C64.4988 22.8773 64.0321 23.1573 63.3041 23.456ZM56.7801 20.712C56.2948 20.712 55.9308 20.7867 55.6881 20.936C55.4641 21.0667 55.3521 21.3373 55.3521 21.748L55.3801 22.084C55.4921 22.0093 55.6695 21.8973 55.9121 21.748C56.1735 21.5987 56.3881 21.44 56.5561 21.272C56.7428 21.104 56.8735 20.9173 56.9481 20.712H56.7801ZM63.6961 21.412C63.4348 21.412 63.3041 21.524 63.3041 21.748L63.6961 21.412ZM56.4441 22.42V21.748L55.7161 22.42H56.4441ZM60.1961 23.4C60.6255 23.4 60.9988 23.344 61.3161 23.232C61.6521 23.12 61.9228 22.9147 62.1281 22.616C62.0721 22.504 61.9321 22.42 61.7081 22.364C61.5028 22.2893 61.3441 22.252 61.2321 22.252C61.1201 22.252 60.9615 22.3547 60.7561 22.56C60.5508 22.7467 60.4295 22.8773 60.3921 22.952V22.616C60.0935 22.7467 59.8601 22.8587 59.6921 22.952C59.5428 23.0453 59.4681 23.1853 59.4681 23.372L60.1961 23.4ZM57.0041 23.288C57.3028 23.288 57.5921 23.2507 57.8721 23.176C58.1708 23.1013 58.3201 22.9613 58.3201 22.756C58.3201 22.644 58.2828 22.56 58.2081 22.504C58.1521 22.4293 58.0775 22.392 57.9841 22.392C57.9281 22.392 57.7228 22.4853 57.3681 22.672C57.0135 22.84 56.7521 22.9893 56.5841 23.12C56.6215 23.232 56.7055 23.288 56.8361 23.288H57.0041ZM59.3561 22.56C59.1695 22.5413 59.0015 22.5973 58.8521 22.728C58.7028 22.84 58.6281 22.9987 58.6281 23.204C59.0015 23.204 59.3655 23.008 59.7201 22.616L59.3561 22.56ZM55.0441 23.624C55.0815 23.6053 55.2215 23.54 55.4641 23.428C55.7255 23.2973 55.9308 23.1387 56.0801 22.952C56.0428 22.8213 55.9028 22.756 55.6601 22.756C55.4548 22.756 55.2961 22.8213 55.1841 22.952C55.0721 23.0827 55.0161 23.2507 55.0161 23.456L55.0441 23.624ZM62.0721 23.232C62.3148 23.232 62.4548 23.0827 62.4921 22.784C62.2121 22.8027 62.0721 22.952 62.0721 23.232ZM64.1721 24.996C64.1721 25.2573 64.2748 25.388 64.4801 25.388C64.6668 25.388 64.8628 25.22 65.0681 24.884C65.2921 24.548 65.4041 24.2773 65.4041 24.072V23.932C65.4041 23.484 65.3201 23.26 65.1521 23.26C65.1335 23.2787 64.9561 23.4 64.6201 23.624C64.3028 23.8293 64.1068 24.0067 64.0321 24.156C64.0508 24.156 64.0788 24.184 64.1161 24.24C64.1535 24.296 64.2095 24.324 64.2841 24.324C64.3961 24.2867 64.5548 24.2587 64.7601 24.24C64.9655 24.2027 65.1148 24.1747 65.2081 24.156C65.1148 24.3053 64.9375 24.4173 64.6761 24.492C64.4895 24.5667 64.3588 24.6413 64.2841 24.716C64.2095 24.772 64.1721 24.8653 64.1721 24.996ZM54.8761 24.324C55.3428 24.324 55.7441 24.0907 56.0801 23.624H55.8841C55.6228 23.624 55.2868 23.8573 54.8761 24.324ZM54.5121 25.528C54.6801 25.4347 54.8761 25.2947 55.1001 25.108C55.3428 24.9027 55.5015 24.7627 55.5761 24.688L55.2121 24.66C55.0441 24.66 54.8761 24.7533 54.7081 24.94C54.5588 25.1267 54.4841 25.248 54.4841 25.304L54.5121 25.528ZM65.6841 24.66C65.6095 24.66 65.4975 24.7533 65.3481 24.94C65.1988 25.1267 65.0681 25.3133 64.9561 25.5C64.8441 25.668 64.7601 25.7987 64.7041 25.892C64.9281 25.892 65.1895 25.8453 65.4881 25.752C65.7868 25.64 65.9361 25.4907 65.9361 25.304C65.9361 24.8747 65.8521 24.66 65.6841 24.66ZM65.3761 26.9L66.2721 26.088V25.808C66.0481 25.808 65.7588 25.864 65.4041 25.976C65.0681 26.088 64.9001 26.228 64.9001 26.396C64.9001 26.4893 64.9468 26.6013 65.0401 26.732C65.1335 26.8627 65.2268 26.928 65.3201 26.928L65.3761 26.9ZM66.6081 28.132C66.8695 28.132 67.0001 28.0293 67.0001 27.824C67.0001 27.5067 66.8135 27.0307 66.4401 26.396C66.4028 26.4333 66.2908 26.508 66.1041 26.62C65.9361 26.7133 65.7961 26.8253 65.6841 26.956C65.5721 27.068 65.5161 27.18 65.5161 27.292C65.7588 27.292 66.0108 27.2267 66.2721 27.096L65.6001 27.796C65.6748 28.02 66.0108 28.132 66.6081 28.132ZM53.8121 27.796C53.8308 27.7587 53.9615 27.6093 54.2041 27.348C54.4655 27.068 54.6241 26.816 54.6801 26.592L54.4281 26.564C54.1668 26.564 53.9428 26.7133 53.7561 27.012C53.5695 27.3107 53.4761 27.6 53.4761 27.88C53.4761 28.0107 53.4855 28.1133 53.5041 28.188C53.5415 28.2627 53.6161 28.3 53.7281 28.3C53.8215 28.3 53.8961 28.2347 53.9521 28.104C54.0081 27.9547 54.0361 27.852 54.0361 27.796H53.8121ZM79.2775 28.972C79.2775 28.6547 79.1935 28.384 79.0255 28.16L79.0535 27.208C79.0908 26.3493 79.1095 25.7053 79.1095 25.276C79.1095 23.2787 78.9135 21.524 78.5215 20.012C78.2602 19.788 78.0362 19.5733 77.8495 19.368C77.5882 19.088 77.3362 18.892 77.0935 18.78C76.8508 18.668 76.4402 18.612 75.8615 18.612C75.4508 18.612 75.0495 18.6773 74.6575 18.808C74.2655 18.92 73.7708 19.1533 73.1735 19.508C72.9495 19.6387 72.8002 19.844 72.7255 20.124C72.6508 20.3853 72.6135 20.7213 72.6135 21.132C72.6135 22.14 72.6322 22.9427 72.6695 23.54C72.7068 24.1187 72.8188 24.6693 73.0055 25.192V28.804C73.0055 28.916 72.9215 28.972 72.7535 28.972C72.1935 28.9347 71.6802 28.8973 71.2135 28.86C70.7468 28.8227 70.4855 28.804 70.4295 28.804L69.8975 28.468C69.8788 28.4493 69.8415 27.9267 69.7855 26.9C69.7482 25.8733 69.7295 24.9587 69.7295 24.156C69.7295 23.3907 69.7575 22.672 69.8135 22C69.8882 20.9173 69.9255 19.8813 69.9255 18.892L69.8975 16.4C70.0282 16.3067 70.1962 16.232 70.4015 16.176C70.6255 16.1013 70.8028 16.064 70.9335 16.064C71.1948 16.064 71.4002 16.1293 71.5495 16.26C71.6988 16.3907 71.8388 16.5773 71.9695 16.82C72.1375 17.1 72.2868 17.24 72.4175 17.24C72.6602 17.24 72.8935 17.1933 73.1175 17.1C73.3415 16.988 73.6495 16.8293 74.0415 16.624C74.5082 16.3627 74.8815 16.176 75.1615 16.064C75.4602 15.9333 75.7775 15.868 76.1135 15.868C76.6922 15.868 77.5882 16.1293 78.8015 16.652L79.4175 16.904C80.5188 17.3333 81.2562 18.3227 81.6295 19.872C82.0215 21.4027 82.2175 23.0267 82.2175 24.744C82.2175 25.2293 82.1708 25.7707 82.0775 26.368C82.0028 27.0773 81.9655 27.6 81.9655 27.936C81.9655 28.1787 81.9748 28.356 81.9935 28.468C81.8068 28.468 81.7042 28.5613 81.6855 28.748C81.6668 28.9347 81.5922 29.084 81.4615 29.196C81.3308 29.3267 80.9855 29.392 80.4255 29.392C80.4628 29.28 80.4815 29.1773 80.4815 29.084C80.4815 29.0467 80.4722 29.028 80.4535 29.028C80.4162 29.0467 80.3415 29.0933 80.2295 29.168C80.1362 29.2613 80.0428 29.3173 79.9495 29.336C79.7442 29.336 79.5668 29.2893 79.4175 29.196L79.2775 28.972ZM75.2455 17.604C75.5255 17.604 75.9082 17.6413 76.3935 17.716C76.8788 17.772 77.2428 17.8467 77.4855 17.94C77.5602 17.9587 77.7375 18.0893 78.0175 18.332C78.0548 18.3507 78.1575 18.4347 78.3255 18.584C78.5122 18.7333 78.6708 18.808 78.8015 18.808C78.9508 18.808 79.0255 18.7427 79.0255 18.612L78.8855 18.472C78.9228 18.3973 79.0162 18.3227 79.1655 18.248C79.3335 18.1733 79.4175 18.0987 79.4175 18.024C79.4175 17.8373 79.2122 17.744 78.8015 17.744C78.6708 17.744 78.5495 17.7813 78.4375 17.856C78.3442 17.912 78.2602 17.94 78.1855 17.94C78.0922 17.8093 78.0082 17.744 77.9335 17.744L77.8775 17.772L78.0175 17.436C77.8868 17.3053 77.7002 17.24 77.4575 17.24C77.3455 17.24 77.2055 17.2587 77.0375 17.296C76.8695 17.3147 76.7388 17.324 76.6455 17.324V16.764C75.9362 16.764 75.5348 16.9227 75.4415 17.24V16.904C75.3668 16.96 75.2548 17.0067 75.1055 17.044C74.9562 17.0627 74.8628 17.0813 74.8255 17.1C74.5082 17.156 74.2655 17.2307 74.0975 17.324C73.9482 17.3987 73.8735 17.5387 73.8735 17.744C73.8735 17.7627 73.9015 17.7907 73.9575 17.828C74.0135 17.8653 74.0415 17.9027 74.0415 17.94L74.4055 17.604C74.4055 17.604 74.4615 17.66 74.5735 17.772H74.6575C74.7135 17.7533 74.7975 17.7067 74.9095 17.632C75.0215 17.5573 75.0775 17.492 75.0775 17.436L75.2455 17.604ZM70.5975 26.116C70.7655 26.116 71.0362 25.8173 71.4095 25.22C71.8015 24.6227 71.9975 24.1933 71.9975 23.932C71.9975 23.6893 71.9882 23.484 71.9695 23.316C71.9508 23.1293 71.9322 22.9707 71.9135 22.84C71.8388 22.392 71.8015 22.0373 71.8015 21.776C71.8015 21.6267 71.8108 21.5053 71.8295 21.412L71.4655 21.552C71.5962 21.3653 71.6802 21.216 71.7175 21.104C71.7735 20.9733 71.8202 20.8053 71.8575 20.6L71.9695 20.012C72.0628 19.6573 72.2028 19.3587 72.3895 19.116C72.5948 18.8733 72.8375 18.6493 73.1175 18.444C73.4162 18.22 73.5655 18.0427 73.5655 17.912C73.5655 17.856 73.5562 17.8093 73.5375 17.772C73.4068 17.8093 73.1922 17.9587 72.8935 18.22C72.8562 18.2387 72.7628 18.3133 72.6135 18.444C72.4642 18.556 72.3428 18.612 72.2495 18.612C72.0815 18.612 71.9602 18.5747 71.8855 18.5C71.8108 18.4067 71.7268 18.2573 71.6335 18.052C71.5588 17.9027 71.4842 17.7907 71.4095 17.716C71.3535 17.6227 71.2602 17.576 71.1295 17.576C71.0548 17.576 70.9895 17.5853 70.9335 17.604C70.9708 17.5667 71.0082 17.5107 71.0455 17.436C71.0828 17.3613 71.1015 17.296 71.1015 17.24C71.1015 17.184 71.0548 17.1467 70.9615 17.128C70.8868 17.0907 70.8402 17.0627 70.8215 17.044C70.8028 17.044 70.7562 17.1187 70.6815 17.268C70.6255 17.4173 70.5975 17.5293 70.5975 17.604C70.5975 17.94 70.6348 18.388 70.7095 18.948C70.7655 19.284 70.7935 19.5547 70.7935 19.76L70.7655 20.348C70.8028 20.348 70.8402 20.376 70.8775 20.432C70.9148 20.4693 70.9335 20.4973 70.9335 20.516C70.9335 20.6653 70.8775 20.8893 70.7655 21.188C70.6535 21.524 70.5975 21.7667 70.5975 21.916H71.2975L70.7655 22.42L70.9335 22.616C70.7095 22.784 70.5602 22.9613 70.4855 23.148C70.4108 23.3347 70.3735 23.5867 70.3735 23.904C70.7282 23.904 70.9708 23.7547 71.1015 23.456C71.1015 23.5307 71.1202 23.568 71.1575 23.568C71.1575 23.5867 71.0548 23.7267 70.8495 23.988C70.6628 24.2493 70.5695 24.408 70.5695 24.464H71.4655L70.5975 24.856V26.116ZM79.4175 19.872C79.6602 19.76 79.8095 19.648 79.8655 19.536C79.9215 19.4053 79.9495 19.2187 79.9495 18.976V18.864C79.9495 18.6213 79.8842 18.4907 79.7535 18.472C79.2682 18.6587 79.0255 18.948 79.0255 19.34H79.5855L79.2215 19.676L79.4175 19.872ZM80.4535 20.348C80.2295 20.3853 80.0335 20.4693 79.8655 20.6C79.6975 20.7307 79.6135 20.8987 79.6135 21.104C79.8562 21.104 80.1082 20.9827 80.3695 20.74C80.6495 20.4973 80.7895 20.2547 80.7895 20.012C80.7895 19.9373 80.7428 19.8347 80.6495 19.704C80.5562 19.5733 80.4628 19.508 80.3695 19.508C80.1642 19.508 79.9775 19.6013 79.8095 19.788C79.6415 19.956 79.5575 20.1427 79.5575 20.348H80.4535ZM80.7895 20.684C80.5468 20.7587 80.3228 20.8987 80.1175 21.104C79.9122 21.3093 79.8095 21.524 79.8095 21.748C80.1455 21.748 80.4162 21.72 80.6215 21.664C80.8455 21.5893 80.9575 21.44 80.9575 21.216C80.9575 21.1227 80.9482 21.0387 80.9295 20.964C80.9108 20.8707 80.8642 20.7773 80.7895 20.684ZM80.2575 21.916C80.0148 21.916 79.8935 22.028 79.8935 22.252L79.9215 22.42C79.9962 22.4013 80.0708 22.3453 80.1455 22.252C80.2202 22.14 80.2668 22.056 80.2855 22L80.2575 21.916ZM80.0895 23.064C80.0895 23.344 80.0708 23.54 80.0335 23.652C80.3508 23.652 80.6215 23.512 80.8455 23.232C81.0695 22.952 81.1815 22.644 81.1815 22.308L81.1255 21.916C80.8455 22.028 80.6028 22.1493 80.3975 22.28C80.1922 22.392 80.0895 22.5227 80.0895 22.672V23.064ZM80.6215 25.612C80.3228 25.6867 80.1735 25.9107 80.1735 26.284C80.4722 26.284 80.7615 26.144 81.0415 25.864C81.3402 25.584 81.4895 25.304 81.4895 25.024C81.4895 24.9493 81.4802 24.8933 81.4615 24.856C81.3495 23.7733 81.2748 23.232 81.2375 23.232C81.2002 23.232 81.0228 23.3533 80.7055 23.596C80.3882 23.82 80.2295 23.988 80.2295 24.1C80.2295 24.1373 80.2575 24.184 80.3135 24.24C80.3695 24.296 80.4162 24.324 80.4535 24.324C80.3042 24.324 80.1922 24.38 80.1175 24.492C80.0428 24.604 80.0055 24.7253 80.0055 24.856C80.1922 24.856 80.3975 24.7627 80.6215 24.576C80.8082 24.4267 80.9762 24.352 81.1255 24.352V24.464C80.5842 24.7627 80.2482 25.1453 80.1175 25.612H80.6215ZM72.2215 24.716C72.0348 24.716 71.7922 24.8653 71.4935 25.164C71.2135 25.4627 71.0735 25.7053 71.0735 25.892H71.9695C72.0442 25.892 72.1002 25.7707 72.1375 25.528C72.1935 25.2667 72.2215 24.996 72.2215 24.716ZM81.2935 25.892C80.7895 26.2653 80.4815 26.6107 80.3695 26.928C80.2575 27.2453 80.2015 27.7587 80.2015 28.468H81.2375C81.2375 27.8707 81.0882 27.5253 80.7895 27.432C80.8455 27.4133 80.9388 27.3667 81.0695 27.292C81.2188 27.1987 81.2935 27.1333 81.2935 27.096V25.892ZM71.4655 26.228C71.0922 26.228 70.8122 26.284 70.6255 26.396C70.4388 26.508 70.3455 26.7413 70.3455 27.096H70.7655L71.6335 26.228H71.4655ZM71.2975 27.432C71.2415 27.5253 71.1482 27.6 71.0175 27.656C70.9055 27.712 70.8215 27.7773 70.7655 27.852C70.7095 27.908 70.6815 28.0107 70.6815 28.16H72.1655C72.2028 28.1413 72.2402 28.104 72.2775 28.048C72.3148 27.992 72.3335 27.9453 72.3335 27.908C72.3335 27.8333 72.2962 27.7307 72.2215 27.6C72.1655 27.4507 72.1375 27.3573 72.1375 27.32C72.1375 27.2827 72.1842 27.236 72.2775 27.18C72.3708 27.124 72.4455 27.096 72.5015 27.096C72.4268 27.0587 72.3708 26.9747 72.3335 26.844C72.3148 26.7133 72.2868 26.6107 72.2495 26.536C72.2308 26.4427 72.1748 26.396 72.0815 26.396C71.8575 26.396 71.5868 26.564 71.2695 26.9C70.9708 27.2173 70.8028 27.3947 70.7655 27.432H71.2975ZM86.3403 10.268C86.3589 10.2307 86.5549 10.1933 86.9283 10.156C87.3016 10.1 87.6189 10.072 87.8803 10.072C88.0296 10.072 88.2069 10.1187 88.4123 10.212C88.6363 10.2867 88.7483 10.3613 88.7483 10.436V12.508C88.7483 12.7507 88.5803 12.872 88.2443 12.872C87.7963 12.872 87.3016 12.8347 86.7603 12.76C86.2376 12.6853 85.9763 12.5453 85.9763 12.34V10.576L86.3403 10.268ZM86.5923 10.94C86.5923 11.1267 86.6296 11.3227 86.7043 11.528C86.7789 11.7147 86.9003 11.808 87.0683 11.808C87.4043 11.808 87.6376 11.78 87.7683 11.724C87.9176 11.668 87.9923 11.528 87.9923 11.304C87.9923 11.2107 87.9549 11.0893 87.8803 10.94C87.8243 10.9587 87.7496 10.996 87.6563 11.052C87.5816 11.108 87.4883 11.136 87.3763 11.136L87.5723 10.94H86.5923ZM86.6763 28.72C86.6389 28.5893 86.5549 28.4307 86.4243 28.244C86.2936 28.0573 86.2096 27.88 86.1723 27.712C85.9109 26.6293 85.7429 25.5 85.6683 24.324C85.5936 23.1293 85.5563 21.72 85.5563 20.096V19.2C85.5563 18.024 85.6589 17.128 85.8643 16.512C86.0696 15.896 86.5176 15.588 87.2083 15.588C87.8989 15.588 88.3656 15.8867 88.6083 16.484C88.8696 17.0627 89.0003 17.8187 89.0003 18.752C89.0003 19.7787 88.9256 20.908 88.7763 22.14C88.6456 23.092 88.5803 23.932 88.5803 24.66C88.5803 25.1267 88.6176 25.808 88.6923 26.704C88.7109 26.928 88.7296 27.1987 88.7483 27.516C88.7669 27.8333 88.7763 28.2067 88.7763 28.636C88.7763 28.9347 88.6549 29.084 88.4123 29.084C88.1883 29.0467 87.8989 28.9907 87.5443 28.916C87.2083 28.8413 86.9189 28.776 86.6763 28.72ZM86.9563 17.352C87.7029 17.352 88.0763 17.24 88.0763 17.016C88.0763 16.792 88.0483 16.6427 87.9923 16.568C87.9549 16.4933 87.8709 16.456 87.7403 16.456C87.7029 16.456 87.6189 16.4933 87.4883 16.568C87.3576 16.624 87.2643 16.652 87.2083 16.652C87.1709 16.652 87.1243 16.624 87.0683 16.568C87.0123 16.4933 86.9376 16.456 86.8443 16.456C86.7136 16.456 86.6109 16.484 86.5363 16.54C86.4803 16.5773 86.4149 16.6707 86.3403 16.82C86.4896 16.9693 86.6296 17.044 86.7603 17.044L86.8443 17.016L86.6763 17.352H86.9563ZM86.3123 18.164C86.3123 18.2013 86.3309 18.248 86.3683 18.304C86.4243 18.3413 86.4709 18.36 86.5083 18.36C86.6763 18.36 86.8816 18.2387 87.1243 17.996C87.3669 17.7347 87.5163 17.576 87.5723 17.52H87.4603C87.3109 17.52 87.0869 17.5667 86.7883 17.66C86.4896 17.7533 86.3403 17.912 86.3403 18.136L86.3123 18.164ZM88.1323 17.576C87.6469 17.576 87.1616 18.0053 86.6763 18.864C86.9376 18.7707 87.2363 18.724 87.5723 18.724C87.7403 18.724 87.8616 18.7053 87.9363 18.668C88.0109 18.6307 88.0576 18.5373 88.0763 18.388C88.1136 18.22 88.1323 17.9493 88.1323 17.576ZM86.3403 19.9C86.3403 19.9373 86.3589 19.984 86.3963 20.04C86.4523 20.0773 86.4896 20.096 86.5083 20.096C86.9189 19.872 87.3203 19.536 87.7123 19.088L87.4603 19.06C87.1616 19.06 86.9003 19.1347 86.6763 19.284C86.4523 19.4147 86.3403 19.62 86.3403 19.9ZM88.0763 19.256C87.5723 19.5173 87.2269 19.8533 87.0403 20.264L87.2923 20.292C87.4229 20.292 87.5816 20.2827 87.7683 20.264C87.9736 20.2267 88.0763 20.1707 88.0763 20.096V19.256ZM87.0403 21.86C87.8803 21.86 88.3003 21.4493 88.3003 20.628H88.0763L87.0403 21.664V21.86ZM87.0403 20.768C86.6669 20.768 86.4803 20.9267 86.4803 21.244L86.5083 21.524L87.2083 20.796L87.0403 20.768ZM87.4043 22.14C87.1616 22.14 86.9283 22.2147 86.7043 22.364C86.4803 22.5133 86.3683 22.7 86.3683 22.924C86.5736 22.924 86.7976 22.8493 87.0403 22.7C87.2829 22.532 87.4043 22.3453 87.4043 22.14ZM87.8803 22.336C87.8056 22.3733 87.6003 22.5413 87.2643 22.84C86.9469 23.1387 86.6949 23.3813 86.5083 23.568H87.8803C87.9923 23.568 88.0576 23.456 88.0763 23.232C88.1136 22.9893 88.1323 22.6907 88.1323 22.336H87.8803ZM86.5083 24.24C86.5083 24.4827 86.5643 24.604 86.6763 24.604L87.5723 23.904V23.736C86.8629 23.8293 86.5083 23.9973 86.5083 24.24ZM86.6763 25.332C87.1429 25.332 87.4603 25.2387 87.6283 25.052C87.8149 24.8653 87.9083 24.5387 87.9083 24.072H87.7123L86.6763 25.108V25.332ZM86.6763 25.976C86.6763 26.032 86.6949 26.0973 86.7323 26.172C86.7696 26.228 86.8069 26.2747 86.8443 26.312L87.5723 25.64L87.2923 25.612C86.9376 25.612 86.7323 25.7333 86.6763 25.976ZM86.6763 27.544C86.7509 27.7493 86.9003 27.88 87.1243 27.936C87.3669 27.9733 87.6469 27.992 87.9643 27.992C87.9643 27.824 87.9083 27.684 87.7963 27.572C87.7029 27.4413 87.6563 27.3667 87.6563 27.348C87.6563 27.348 87.7123 27.32 87.8243 27.264C87.9363 27.208 87.9923 26.7787 87.9923 25.976H87.5723C87.5349 25.976 87.3949 26.1253 87.1523 26.424C86.9283 26.7227 86.8163 26.9093 86.8163 26.984V27.012H87.5723L86.6763 27.544ZM99.8428 15.308C99.8988 15.308 99.9735 15.3547 100.067 15.448C100.179 15.5227 100.235 15.588 100.235 15.644V17.716L100.039 17.884C99.9082 17.884 99.4602 17.884 98.6948 17.884C97.9482 17.884 97.2482 17.94 96.5948 18.052L96.6228 18.248C96.6228 18.4907 96.5575 18.7893 96.4268 19.144C96.3148 19.5173 96.2588 19.788 96.2588 19.956C96.2588 19.9933 96.2775 20.04 96.3148 20.096C96.3708 20.1333 96.4082 20.152 96.4268 20.152V23.064C96.5575 23.1947 96.6228 23.484 96.6228 23.932L96.5948 24.632C96.6882 24.6507 96.7442 24.8747 96.7628 25.304C96.7815 25.7147 96.9215 26.088 97.1828 26.424C97.4628 26.76 98.0135 26.9653 98.8348 27.04C98.8908 27.04 99.0215 27.0587 99.2268 27.096C99.4322 27.1147 99.5908 27.18 99.7028 27.292C99.8148 27.3853 99.8708 27.5347 99.8708 27.74C99.8708 28.076 99.8428 28.328 99.7868 28.496C99.7308 28.664 99.6282 28.8693 99.4788 29.112L99.1988 29.616C98.8815 29.5973 98.5268 29.532 98.1348 29.42C97.7428 29.308 97.3695 29.196 97.0148 29.084C96.1188 28.7853 95.4748 28.6267 95.0828 28.608C94.7095 28.608 94.4575 28.2067 94.3268 27.404C94.2148 26.5827 94.1588 25.7987 94.1588 25.052C94.1588 24.5293 94.2055 24.0347 94.2988 23.568C94.3175 23.4373 94.3362 23.288 94.3548 23.12C94.3735 22.952 94.3828 22.7653 94.3828 22.56C94.3828 21.664 94.2615 20.1613 94.0188 18.052C93.8508 18.0333 93.6828 18.0053 93.5148 17.968C93.3655 17.9307 93.2348 17.9027 93.1228 17.884C92.6375 17.7533 92.2922 17.688 92.0868 17.688C91.9935 17.688 91.8815 17.5573 91.7508 17.296C91.6202 17.016 91.5548 16.792 91.5548 16.624C91.5548 16.2507 91.6762 16.008 91.9188 15.896C92.1615 15.784 92.5068 15.7187 92.9548 15.7C93.1975 15.7 93.3748 15.6907 93.4868 15.672C93.5988 15.6347 93.6642 15.5693 93.6828 15.476C93.6828 15.0467 93.7108 14.5893 93.7668 14.104C93.8415 13.6187 93.9255 13.3293 94.0188 13.236C94.2615 13.3293 94.3828 13.768 94.3828 14.552L94.3548 15.308L94.5228 15.476C94.5602 15.4573 94.7748 15.3547 95.1668 15.168C95.5588 14.9813 95.7548 14.8133 95.7548 14.664L95.7268 14.44C95.7268 14.384 95.7548 14.1787 95.8108 13.824C95.8668 13.4693 95.8948 13.208 95.8948 13.04H95.8388C95.7455 13.04 95.5122 13.1333 95.1388 13.32C94.7655 13.488 94.5602 13.572 94.5228 13.572C94.6162 13.4787 94.8495 13.3013 95.2228 13.04C94.8495 12.9653 94.5602 12.8533 94.3548 12.704C94.5228 12.5733 94.6908 12.4893 94.8588 12.452C95.0455 12.396 95.2695 12.3587 95.5308 12.34C95.8668 12.34 96.1655 12.2933 96.4268 12.2C96.4268 12.2747 96.4828 12.368 96.5948 12.48C96.7068 12.5733 96.7628 12.648 96.7628 12.704C96.7442 12.7787 96.7162 12.8907 96.6788 13.04C96.6415 13.1707 96.6135 13.292 96.5948 13.404C96.5948 14.0387 96.6602 14.5053 96.7908 14.804C96.9215 15.1027 97.1175 15.2893 97.3788 15.364C97.6588 15.4387 98.0882 15.476 98.6668 15.476C98.7975 15.476 98.9842 15.448 99.2268 15.392C99.4695 15.336 99.6748 15.308 99.8428 15.308ZM95.7268 14.412V14.44V14.412ZM96.5948 16.148C96.4642 16.092 96.2868 15.9333 96.0628 15.672C96.0442 15.6533 95.9788 15.588 95.8668 15.476C95.7735 15.3453 95.6802 15.28 95.5868 15.28C95.3255 15.28 95.1948 15.4013 95.1948 15.644H95.3908C95.2415 15.8867 94.9615 16.0733 94.5508 16.204C94.1402 16.3347 93.6455 16.4467 93.0668 16.54C92.8615 16.5773 92.6748 16.6147 92.5068 16.652C92.3575 16.6893 92.2828 16.7267 92.2828 16.764C92.2828 16.876 92.4882 16.9787 92.8988 17.072C93.3282 17.1653 93.6362 17.212 93.8228 17.212L95.3908 15.98H95.7548L94.8588 16.848V17.016L96.5948 16.148ZM97.4628 16.148C97.3135 16.148 97.1828 16.1947 97.0708 16.288C96.9775 16.3627 96.8748 16.4933 96.7628 16.68C96.8562 16.6613 97.0055 16.596 97.2108 16.484C97.4348 16.3533 97.5748 16.2413 97.6308 16.148H97.4628ZM99.5348 16.344L98.6948 16.316L97.8268 16.344C97.6775 16.3627 97.4628 16.4653 97.1828 16.652C96.9028 16.82 96.7628 16.9413 96.7628 17.016V17.24C96.8562 17.24 97.0335 17.1653 97.2948 17.016C97.5562 16.8667 97.7335 16.7547 97.8268 16.68L97.4628 17.212C97.6868 17.212 98.0042 17.1747 98.4148 17.1C98.5268 17.0813 98.6575 17.0627 98.8068 17.044C98.9562 17.0253 99.1335 17.016 99.3388 17.016L99.5348 16.344ZM95.8948 17.016V16.848C95.8015 16.904 95.7082 16.96 95.6148 17.016C95.5402 17.0533 95.4655 17.1 95.3908 17.156C94.7935 17.4547 94.4948 17.6973 94.4948 17.884H94.8588L95.8948 17.016ZM95.5588 18.052C95.3348 18.052 95.1295 18.1547 94.9428 18.36C94.7748 18.5467 94.6908 18.724 94.6908 18.892V19.032C94.6908 19.2933 94.7468 19.4333 94.8588 19.452C95.0642 19.3027 95.2322 19.1253 95.3628 18.92C95.5122 18.696 95.5868 18.472 95.5868 18.248L95.5588 18.052ZM96.4548 26.788C96.4548 26.62 96.3895 26.536 96.2588 26.536L96.0068 26.564L96.0908 25.5C96.0535 25.1827 95.9975 24.856 95.9228 24.52C95.8482 24.1653 95.7922 23.9133 95.7548 23.764L95.5588 23.596L95.7548 23.428L95.7828 22.784C95.7828 22.3547 95.7455 21.7667 95.6708 21.02C95.5775 20.3667 95.5308 19.76 95.5308 19.2C95.3068 19.2 95.1388 19.34 95.0268 19.62C94.9148 19.8813 94.8588 20.1427 94.8588 20.404C94.8588 20.6653 94.8868 20.824 94.9428 20.88C94.9988 20.9173 95.0268 20.9547 95.0268 20.992C95.0268 21.0667 94.9895 21.1507 94.9148 21.244C94.8588 21.3373 94.8308 21.468 94.8308 21.636C94.8308 22.028 94.9242 22.224 95.1108 22.224H95.1668C95.0922 22.2987 95.0175 22.4667 94.9428 22.728C94.8868 22.9893 94.8588 23.2227 94.8588 23.428C94.9895 23.428 95.0548 23.4747 95.0548 23.568C95.0548 23.6427 94.9895 23.7733 94.8588 23.96C94.7282 24.128 94.6628 24.2213 94.6628 24.24C94.6628 24.464 94.7095 24.6693 94.8028 24.856C94.8962 25.0427 94.9428 25.1733 94.9428 25.248C94.9428 25.3973 94.8588 25.5933 94.6908 25.836C94.7095 25.892 94.7562 25.9947 94.8308 26.144C94.9055 26.2747 94.9708 26.34 95.0268 26.34C95.1388 26.34 95.2695 26.3213 95.4188 26.284C95.5868 26.2467 95.6988 26.2093 95.7548 26.172C95.6802 26.284 95.5308 26.396 95.3068 26.508C95.1015 26.62 94.9522 26.6853 94.8588 26.704C94.8588 27.5813 95.4002 28.02 96.4828 28.02C96.4828 28.412 96.6228 28.608 96.9028 28.608C96.9962 28.608 97.0988 28.58 97.2108 28.524C97.3228 28.4493 97.4068 28.356 97.4628 28.244C97.5002 28.244 97.5282 28.2627 97.5468 28.3C97.5655 28.3187 97.5935 28.328 97.6308 28.328V28.636C98.0788 28.636 98.4802 28.3933 98.8348 27.908C98.7975 27.684 98.3962 27.572 97.6308 27.572C97.5562 27.572 97.4628 27.5907 97.3508 27.628C97.2575 27.6653 97.1735 27.7027 97.0988 27.74C97.1175 27.7213 97.1268 27.684 97.1268 27.628C97.1268 27.516 97.0242 27.4227 96.8188 27.348C96.6135 27.2547 96.4548 27.208 96.3428 27.208C96.2308 27.208 96.0722 27.236 95.8668 27.292C95.6802 27.348 95.5215 27.376 95.3908 27.376C95.4282 27.3013 95.5868 27.208 95.8668 27.096C96.1468 26.9653 96.3335 26.8813 96.4268 26.844L96.4548 26.788ZM95.2228 22.196L95.1668 22.224L95.2228 22.196ZM99.0868 28.776C99.0868 28.4773 99.0028 28.3 98.8348 28.244C98.7415 28.3 98.6482 28.384 98.5548 28.496C98.4802 28.5893 98.4428 28.6827 98.4428 28.776H99.0868ZM111.523 16.12C112.886 17.0347 113.857 18.0707 114.435 19.228C115.033 20.3853 115.331 21.804 115.331 23.484L115.303 24.408C115.266 24.5013 115.191 24.576 115.079 24.632C114.986 24.688 114.911 24.744 114.855 24.8C114.799 24.856 114.771 24.9587 114.771 25.108C114.771 25.1827 114.781 25.2573 114.799 25.332C114.818 25.388 114.865 25.4347 114.939 25.472C114.827 25.472 114.734 25.5467 114.659 25.696C114.603 25.8267 114.51 26.0693 114.379 26.424C114.23 26.9467 114.081 27.264 113.931 27.376C112.905 28.1413 111.813 28.692 110.655 29.028C109.498 29.364 108.219 29.532 106.819 29.532L104.635 28.16C104.318 28.16 104.057 28.0573 103.851 27.852C103.646 27.6467 103.441 27.3387 103.235 26.928C103.105 26.7227 102.965 26.5173 102.815 26.312C102.666 26.088 102.507 25.92 102.339 25.808C102.078 25.1733 101.901 24.52 101.807 23.848C101.714 23.1573 101.667 22.3827 101.667 21.524L102.731 18.556C102.75 18.5187 102.974 18.276 103.403 17.828C103.851 17.38 104.243 16.9973 104.579 16.68C105.083 16.232 105.709 15.8587 106.455 15.56C107.202 15.2613 107.911 15.112 108.583 15.112C109.069 15.112 109.563 15.2053 110.067 15.392C110.59 15.5787 111.075 15.8213 111.523 16.12ZM105.167 17.52C105.167 17.5947 105.083 17.688 104.915 17.8C104.766 17.8933 104.691 17.996 104.691 18.108H105.083C105.681 18.108 105.979 18.024 105.979 17.856L105.475 17.52C105.475 17.4827 105.494 17.4453 105.531 17.408C105.569 17.3707 105.606 17.352 105.643 17.352C105.774 17.352 105.933 17.3893 106.119 17.464C106.325 17.52 106.465 17.548 106.539 17.548C106.689 17.548 106.829 17.5013 106.959 17.408C107.09 17.3147 107.23 17.184 107.379 17.016C107.603 16.7547 107.827 16.5867 108.051 16.512H107.799H107.603C107.491 16.512 107.407 16.5027 107.351 16.484C107.295 16.4467 107.239 16.3907 107.183 16.316C107.015 16.316 106.838 16.3627 106.651 16.456C106.483 16.5307 106.278 16.6613 106.035 16.848C105.662 17.1093 105.354 17.2773 105.111 17.352C105.149 17.408 105.167 17.464 105.167 17.52ZM109.675 16.316C109.619 16.316 109.489 16.4093 109.283 16.596C109.097 16.7827 108.975 16.9227 108.919 17.016L109.619 17.156C110.366 17.2867 110.823 17.352 110.991 17.352C111.085 17.352 111.169 17.3427 111.243 17.324C111.318 17.3053 111.411 17.2587 111.523 17.184C111.337 16.9413 111.047 16.736 110.655 16.568C110.282 16.4 109.955 16.316 109.675 16.316ZM111.271 17.52C111.271 17.6507 111.355 17.7533 111.523 17.828C111.691 17.884 111.859 17.912 112.027 17.912V17.52H111.271ZM109.003 17.828C108.369 17.828 107.837 17.94 107.407 18.164C106.978 18.388 106.502 18.752 105.979 19.256C105.867 19.3493 105.793 19.5453 105.755 19.844C105.737 20.012 105.709 20.1427 105.671 20.236C105.634 20.3293 105.569 20.404 105.475 20.46C105.401 20.628 105.298 21.0013 105.167 21.58C105.037 22.14 104.962 22.5133 104.943 22.7C104.925 22.812 104.915 22.9613 104.915 23.148C104.915 24.716 105.727 25.892 107.351 26.676L108.667 26.732C109.787 26.732 110.646 26.5547 111.243 26.2C111.859 25.8453 112.279 25.3227 112.503 24.632C112.746 23.9413 112.867 23.036 112.867 21.916C112.867 21.6173 112.783 21.1787 112.615 20.6C112.466 20.0027 112.317 19.5547 112.167 19.256C111.663 19.144 111.206 18.7427 110.795 18.052C110.59 18.052 110.301 18.0147 109.927 17.94C109.517 17.8653 109.209 17.828 109.003 17.828ZM112.447 17.828C112.354 17.828 112.279 17.8747 112.223 17.968C112.186 18.0427 112.167 18.1267 112.167 18.22C112.167 18.5 112.289 18.6773 112.531 18.752C112.569 18.7333 112.653 18.6867 112.783 18.612C112.933 18.5373 113.026 18.4627 113.063 18.388C112.989 18.3133 112.867 18.2013 112.699 18.052C112.55 17.9027 112.466 17.828 112.447 17.828ZM104.327 18.22C104.271 18.22 104.159 18.2947 103.991 18.444C103.842 18.5933 103.758 18.7147 103.739 18.808C103.739 19.032 103.898 19.144 104.215 19.144C104.327 19.144 104.458 19.144 104.607 19.144C104.775 19.1253 104.887 19.1067 104.943 19.088L105.111 18.388L104.327 18.22ZM112.699 18.892V19.144C113.017 19.144 113.194 19.06 113.231 18.892H112.699ZM103.487 19.256C103.301 19.256 103.17 19.3773 103.095 19.62C103.021 19.8627 102.983 20.096 102.983 20.32C103.301 20.32 103.618 20.2547 103.935 20.124C104.253 19.9933 104.467 19.816 104.579 19.592C104.281 19.368 103.917 19.256 103.487 19.256ZM113.791 19.872C113.791 19.704 113.763 19.564 113.707 19.452C113.651 19.3213 113.558 19.256 113.427 19.256C113.166 19.256 113.035 19.34 113.035 19.508C113.035 19.7507 113.287 19.872 113.791 19.872ZM103.991 20.656C104.215 20.656 104.374 20.6187 104.467 20.544C104.579 20.4693 104.673 20.3293 104.747 20.124L104.663 20.096C104.551 20.096 104.411 20.1613 104.243 20.292C104.075 20.4227 103.991 20.544 103.991 20.656ZM113.399 20.516C113.493 20.516 113.577 20.4787 113.651 20.404C113.745 20.3107 113.791 20.2173 113.791 20.124H113.399V20.516ZM114.435 21.328C114.435 21.216 114.389 21.076 114.295 20.908C114.221 20.7213 114.127 20.628 114.015 20.628C113.717 20.628 113.567 20.74 113.567 20.964C113.567 21.0573 113.595 21.1693 113.651 21.3C113.726 21.412 113.763 21.496 113.763 21.552V21.58C113.763 21.636 113.735 21.692 113.679 21.748C113.642 21.804 113.605 21.832 113.567 21.832L113.679 21.86C113.717 21.86 113.791 21.8133 113.903 21.72C114.015 21.608 114.09 21.5427 114.127 21.524C114.202 21.524 114.267 21.5053 114.323 21.468C114.398 21.412 114.435 21.3653 114.435 21.328ZM103.291 20.964C102.993 20.964 102.769 21.0387 102.619 21.188C102.489 21.3373 102.423 21.5707 102.423 21.888C102.666 21.888 102.899 21.8227 103.123 21.692C103.347 21.5613 103.599 21.384 103.879 21.16C103.879 21.0293 103.739 20.964 103.459 20.964C103.422 20.964 103.394 20.9733 103.375 20.992C103.357 20.992 103.338 20.992 103.319 20.992C103.301 20.992 103.291 20.992 103.291 20.992C103.291 20.9733 103.291 20.964 103.291 20.964ZM104.075 22.336C104.187 22.336 104.243 22.1773 104.243 21.86C104.243 21.5427 104.243 21.3653 104.243 21.328C104.169 21.4027 104.057 21.4773 103.907 21.552C103.758 21.6267 103.655 21.6827 103.599 21.72C103.095 21.944 102.806 22.1493 102.731 22.336H104.075ZM114.519 22.924C114.519 22.196 114.435 21.832 114.267 21.832L113.567 22.56C113.642 22.6907 113.773 22.784 113.959 22.84C114.146 22.896 114.333 22.924 114.519 22.924ZM102.451 23.764C102.657 23.764 102.965 23.6707 103.375 23.484C103.786 23.2787 103.991 23.0827 103.991 22.896H102.731C102.545 22.896 102.451 23.1853 102.451 23.764ZM113.539 24.464C114.249 24.464 114.603 24.2213 114.603 23.736C114.603 23.5493 114.529 23.4373 114.379 23.4C114.249 23.344 114.053 23.316 113.791 23.316C113.791 23.5027 113.745 23.6893 113.651 23.876C113.577 24.0627 113.539 24.2587 113.539 24.464ZM104.327 23.344C104.253 23.344 104.075 23.4093 103.795 23.54C103.534 23.6707 103.347 23.792 103.235 23.904L104.075 24.1C104.15 24.1 104.206 24.0253 104.243 23.876C104.299 23.708 104.327 23.5307 104.327 23.344ZM103.039 25.304C103.077 25.2853 103.17 25.2293 103.319 25.136C103.487 25.024 103.618 24.912 103.711 24.8C103.823 24.6693 103.879 24.5387 103.879 24.408L103.571 24.38C103.478 24.38 103.329 24.3987 103.123 24.436C102.937 24.4547 102.843 24.5107 102.843 24.604L103.039 25.304ZM103.375 25.808C103.711 25.752 104.113 25.584 104.579 25.304C104.579 25.1547 104.551 25.024 104.495 24.912C104.458 24.8 104.402 24.744 104.327 24.744L104.243 24.772L103.375 25.64V25.808ZM113.511 25.5C113.735 25.5 113.922 25.444 114.071 25.332C114.221 25.2013 114.295 25.0147 114.295 24.772H113.511C113.511 24.9027 113.465 25.0333 113.371 25.164C113.297 25.2947 113.194 25.3973 113.063 25.472L113.511 25.5ZM103.739 26.34C103.982 26.8253 104.178 27.068 104.327 27.068C104.533 27.068 104.747 26.9933 104.971 26.844C105.195 26.676 105.307 26.4893 105.307 26.284C105.009 26.284 104.822 26.3587 104.747 26.508V25.64L103.739 26.144V26.228V26.34ZM112.279 26.732C112.615 26.732 112.942 26.6853 113.259 26.592C113.595 26.48 113.763 26.2747 113.763 25.976C113.763 25.864 113.605 25.808 113.287 25.808C113.045 25.808 112.811 25.9013 112.587 26.088C112.382 26.2747 112.279 26.4893 112.279 26.732ZM105.111 27.712C105.242 27.712 105.354 27.6933 105.447 27.656C105.541 27.6 105.634 27.5067 105.727 27.376V27.936C105.951 27.936 106.166 27.8893 106.371 27.796C106.577 27.7027 106.679 27.5627 106.679 27.376C106.679 27.2453 106.549 27.124 106.287 27.012C106.045 26.9 105.858 26.844 105.727 26.844H105.643L104.579 27.18C104.579 27.3293 104.626 27.46 104.719 27.572C104.831 27.6653 104.962 27.712 105.111 27.712ZM112.699 26.984C112.625 26.984 112.457 26.984 112.195 26.984C111.953 26.984 111.729 27.0213 111.523 27.096C111.337 27.152 111.159 27.2453 110.991 27.376C110.767 27.544 110.646 27.628 110.627 27.628H108.387L107.883 28.188C108.126 28.3 108.35 28.3747 108.555 28.412C108.761 28.4307 109.013 28.44 109.311 28.44C109.666 28.44 110.095 28.3467 110.599 28.16C111.122 27.9733 111.598 27.7773 112.027 27.572C112.475 27.348 112.699 27.2173 112.699 27.18V26.984ZM113.231 27.544H113.175C113.026 27.544 112.923 27.6 112.867 27.712L113.231 27.544ZM106.259 28.356C106.782 28.356 107.043 28.1227 107.043 27.656C106.838 27.656 106.651 27.7307 106.483 27.88C106.334 28.0107 106.259 28.1693 106.259 28.356ZM107.547 27.908C107.734 27.908 107.902 27.8427 108.051 27.712L107.799 27.684H107.687C107.501 27.684 107.389 27.7493 107.351 27.88L107.547 27.908ZM111.327 28.44C111.439 28.44 111.514 28.4307 111.551 28.412C111.607 28.3747 111.645 28.3 111.663 28.188L111.131 28.412L111.327 28.44ZM109.955 28.916L109.787 28.888C109.675 28.888 109.591 28.9067 109.535 28.944C109.479 28.9627 109.442 29.0187 109.423 29.112L109.955 28.916ZM118.922 35.188C120.023 35.076 120.574 34.824 120.574 34.432C120.443 34.432 120.322 34.4507 120.21 34.488C120.098 34.5253 120.023 34.5533 119.986 34.572C119.799 34.6653 119.612 34.712 119.426 34.712C119.183 34.712 119.062 34.6373 119.062 34.488V28.132C119.062 27.9453 119.034 27.74 118.978 27.516C118.94 27.2733 118.922 27.124 118.922 27.068C118.922 26.788 118.95 26.3867 119.006 25.864L119.062 24.66C119.062 24.1373 119.034 23.6987 118.978 23.344C118.922 22.504 118.894 21.8507 118.894 21.384C118.894 20.4133 118.903 19.8347 118.922 19.648L118.726 19.508C118.763 19.34 118.8 19.1347 118.838 18.892C118.875 18.6493 118.903 18.444 118.922 18.276C118.922 18.2387 118.856 17.8933 118.726 17.24C118.726 16.7733 118.81 16.484 118.978 16.372C119.146 16.26 119.5 16.204 120.042 16.204C120.378 16.204 120.602 16.2133 120.714 16.232C120.826 16.2507 120.928 16.316 121.022 16.428C121.115 16.54 121.218 16.6893 121.33 16.876C121.946 16.5587 122.59 16.288 123.262 16.064C123.952 15.8213 124.568 15.7 125.11 15.7C126.995 15.7 128.47 16.2507 129.534 17.352C130.616 18.4533 131.158 19.9 131.158 21.692V22.924C131.158 24.1373 131.046 25.0053 130.822 25.528C130.691 25.8453 130.402 26.2747 129.954 26.816C129.524 27.3573 129.067 27.8333 128.582 28.244C128.096 28.6547 127.686 28.86 127.35 28.86C127.816 28.4493 128.05 28.2347 128.05 28.216C128.05 28.1973 128.04 28.188 128.022 28.188C127.984 28.188 127.751 28.328 127.322 28.608L126.51 29.14C126.454 29.2147 126.398 29.252 126.342 29.252C126.286 29.252 126.174 29.2147 126.006 29.14C125.838 29.084 125.698 29.056 125.586 29.056C125.306 29.056 125.044 29.2053 124.802 29.504C124.671 29.4853 124.148 29.364 123.234 29.14C123.159 28.9533 122.982 28.8227 122.702 28.748C122.422 28.6547 122.188 28.608 122.002 28.608C121.908 28.608 121.768 28.636 121.582 28.692C121.414 28.7293 121.33 28.7667 121.33 28.804V34.348C121.442 34.6467 121.498 34.9733 121.498 35.328C121.498 35.44 121.348 35.5333 121.05 35.608C120.751 35.7013 120.284 35.748 119.65 35.748C119.332 35.748 119.09 35.7387 118.922 35.72V35.188ZM120.966 19.144C121.04 19.256 121.162 19.312 121.33 19.312C121.722 19.312 122.076 19.1813 122.394 18.92C122.73 18.64 123.084 18.2573 123.458 17.772C123.7 17.4733 123.887 17.2587 124.018 17.128C124.167 16.9787 124.307 16.8947 124.438 16.876C124.438 16.8947 124.41 16.9507 124.354 17.044C124.298 17.1373 124.27 17.2027 124.27 17.24C124.27 17.2773 124.288 17.3427 124.326 17.436C124.382 17.5107 124.419 17.5573 124.438 17.576C124.643 17.464 124.82 17.38 124.97 17.324C125.343 17.2307 125.623 17.0347 125.81 16.736C125.66 16.6427 125.52 16.5867 125.39 16.568C125.278 16.5307 125.119 16.512 124.914 16.512C124.279 16.512 123.766 16.6053 123.374 16.792C122.982 16.9787 122.59 17.3053 122.198 17.772L122.254 17.8C122.31 17.8 122.375 17.772 122.45 17.716C122.543 17.66 122.636 17.6133 122.73 17.576L122.758 17.66C122.758 17.7907 122.664 17.94 122.478 18.108C122.291 18.2573 122.02 18.4347 121.666 18.64C121.255 18.9013 121.022 19.0693 120.966 19.144ZM126.762 16.876C126.687 16.876 126.612 16.9133 126.538 16.988C126.482 17.0627 126.454 17.1467 126.454 17.24H127.042C127.042 17.1467 127.014 17.0627 126.958 16.988C126.92 16.9133 126.855 16.876 126.762 16.876ZM119.426 17.408C119.444 17.5013 119.491 17.6413 119.566 17.828C119.64 17.996 119.706 18.0893 119.762 18.108C119.874 18.0147 119.986 17.9027 120.098 17.772C120.228 17.6413 120.294 17.548 120.294 17.492C120.294 17.38 120.2 17.2867 120.014 17.212C119.846 17.1187 119.715 17.072 119.622 17.072C119.584 17.0907 119.538 17.1373 119.482 17.212C119.444 17.2867 119.426 17.352 119.426 17.408ZM120.462 18.052C120.219 18.052 119.986 18.1827 119.762 18.444H120.462V18.052ZM121.302 22.868C121.32 24.0627 121.684 25.0707 122.394 25.892C123.122 26.6947 124.092 27.096 125.306 27.096C125.922 27.096 126.444 27.04 126.874 26.928C127.303 26.816 127.63 26.5733 127.854 26.2C127.798 26.1813 127.76 26.144 127.742 26.088C127.723 26.0133 127.714 25.9387 127.714 25.864C127.714 25.7707 127.732 25.6867 127.77 25.612C127.826 25.5187 127.9 25.472 127.994 25.472C127.994 25.304 128.068 25.0893 128.218 24.828C128.236 24.7907 128.274 24.716 128.33 24.604C128.386 24.4733 128.414 24.352 128.414 24.24C128.414 24.1467 128.386 24.016 128.33 23.848C128.274 23.6613 128.246 23.5213 128.246 23.428C128.246 23.372 128.274 23.2973 128.33 23.204C128.404 23.1107 128.451 23.0547 128.47 23.036C128.47 22.98 128.367 22.84 128.162 22.616C127.956 22.392 127.854 22.2427 127.854 22.168C127.854 22.0933 127.882 22 127.938 21.888C128.012 21.7573 128.05 21.6733 128.05 21.636C128.012 21.58 127.947 21.4493 127.854 21.244C127.76 21.0387 127.714 20.908 127.714 20.852V20.376C127.714 20.208 127.686 20.0867 127.63 20.012C127.574 19.9187 127.48 19.8067 127.35 19.676C127.107 19.508 126.986 19.2933 126.986 19.032C126.818 19.032 126.584 18.9573 126.286 18.808C125.987 18.64 125.782 18.5187 125.67 18.444L124.606 18.612V18.416C124.494 18.416 124.363 18.4627 124.214 18.556C124.083 18.6493 123.952 18.752 123.822 18.864C123.486 19.1627 123.224 19.312 123.038 19.312C122.963 19.312 122.907 19.3027 122.87 19.284L122.366 20.012H122.198C122.067 20.012 121.88 20.404 121.638 21.188C121.414 21.9533 121.302 22.5133 121.302 22.868ZM129.254 18.584C129.123 18.584 129.02 18.612 128.946 18.668C128.871 18.724 128.806 18.8267 128.75 18.976L129.086 19.004H129.17C129.431 19.004 129.58 18.9293 129.618 18.78C129.562 18.6867 129.506 18.6307 129.45 18.612C129.412 18.5933 129.347 18.584 129.254 18.584ZM120.462 20.516C120.48 20.5907 120.546 20.6933 120.658 20.824C120.788 20.936 120.891 21.0107 120.966 21.048C121.096 20.9733 121.199 20.8053 121.274 20.544C121.367 20.264 121.442 20.0867 121.498 20.012H120.798L120.966 19.844L120.882 19.816C120.77 19.816 120.667 19.9093 120.574 20.096C120.499 20.264 120.462 20.404 120.462 20.516ZM128.75 20.516C128.75 20.628 128.862 20.684 129.086 20.684C129.776 20.684 130.122 20.5347 130.122 20.236C130.122 20.1987 130.103 20.1333 130.066 20.04C130.047 19.9467 130.01 19.8813 129.954 19.844C129.711 19.9373 129.45 20.0587 129.17 20.208C128.89 20.3573 128.75 20.46 128.75 20.516ZM119.258 20.852C119.295 20.9453 119.36 21.0387 119.454 21.132C119.566 21.2067 119.65 21.244 119.706 21.244C119.743 21.244 119.79 21.1973 119.846 21.104C119.902 21.0107 119.93 20.9267 119.93 20.852H119.258ZM129.45 23.428C129.468 23.4653 129.571 23.5307 129.758 23.624C129.944 23.6987 130.066 23.7547 130.122 23.792H130.206C130.299 23.792 130.364 23.5773 130.402 23.148C130.458 22.7 130.486 22.3453 130.486 22.084C130.486 21.9347 130.448 21.776 130.374 21.608C130.318 21.44 130.234 21.356 130.122 21.356C129.898 21.58 129.702 21.7293 129.534 21.804C129.384 21.86 129.282 21.9067 129.226 21.944C129.17 21.9813 129.142 22.056 129.142 22.168H130.066C130.066 22.1867 130.075 22.2333 130.094 22.308C130.112 22.364 130.122 22.4387 130.122 22.532C130.122 22.6627 130.038 22.8213 129.87 23.008C129.72 23.1947 129.58 23.3347 129.45 23.428ZM120.294 22.924H120.462V22.588L120.294 22.924ZM120.126 24.492C119.902 24.604 119.752 24.7253 119.678 24.856C119.622 24.968 119.594 25.136 119.594 25.36C119.818 25.2293 119.958 25.108 120.014 24.996C120.088 24.884 120.126 24.716 120.126 24.492ZM129.786 25.528C130.028 25.36 130.15 25.0987 130.15 24.744L130.122 24.492C130.01 24.5293 129.86 24.604 129.674 24.716C129.487 24.8093 129.347 24.912 129.254 25.024L129.786 25.528ZM120.126 25.528C120.816 25.528 121.162 25.4067 121.162 25.164C121.162 25.108 121.143 25.024 121.106 24.912C121.087 24.8 121.04 24.744 120.966 24.744C120.91 24.744 120.854 24.772 120.798 24.828L120.126 25.528ZM120.21 26.06C120.042 26.06 119.892 26.088 119.762 26.144C119.631 26.1813 119.566 26.2373 119.566 26.312L119.594 26.396C119.631 26.3773 119.734 26.3493 119.902 26.312C120.088 26.256 120.219 26.172 120.294 26.06H120.21ZM121.666 26.732C121.722 26.732 121.768 26.6947 121.806 26.62C121.843 26.5453 121.862 26.4893 121.862 26.452C121.824 26.3213 121.75 26.228 121.638 26.172C121.526 26.0973 121.423 26.06 121.33 26.06L121.666 26.732ZM129.646 26.368C129.59 26.3867 129.562 26.424 129.562 26.48C129.562 26.5733 129.58 26.6573 129.618 26.732L129.954 26.396L129.646 26.368ZM120.294 27.432C119.995 27.5813 119.818 27.8707 119.762 28.3L120.238 28.328C120.518 28.328 120.658 28.2253 120.658 28.02C120.658 27.9267 120.62 27.824 120.546 27.712C120.471 27.5813 120.387 27.488 120.294 27.432ZM126.314 28.468C126.482 28.3747 126.566 28.2627 126.566 28.132H125.978L126.314 28.468ZM125.474 28.608C125.362 28.496 125.231 28.3933 125.082 28.3C124.932 28.2067 124.792 28.16 124.662 28.16C124.4 28.16 124.242 28.3093 124.186 28.608H125.474ZM123.402 28.216C122.991 28.216 122.767 28.3 122.73 28.468H123.402V28.216ZM119.762 28.972C119.855 29.028 119.93 29.112 119.986 29.224C120.06 29.3547 120.126 29.448 120.182 29.504C120.238 29.5787 120.331 29.6253 120.462 29.644C120.611 29.4947 120.686 29.2893 120.686 29.028C120.368 29.028 120.182 28.9533 120.126 28.804C120.107 28.804 119.986 28.86 119.762 28.972ZM119.93 33.816C119.948 33.8347 119.976 33.8627 120.014 33.9C120.051 33.9373 120.088 33.9653 120.126 33.984C120.48 33.984 120.658 33.8813 120.658 33.676C120.658 33.452 120.639 33.2093 120.602 32.948C120.583 32.6867 120.574 32.4907 120.574 32.36C120.499 31.7627 120.462 31.3147 120.462 31.016C120.462 30.5867 120.256 30.372 119.846 30.372C119.771 30.372 119.687 30.4 119.594 30.456C119.519 30.5307 119.463 30.5773 119.426 30.596H119.93C119.836 30.6893 119.752 30.792 119.678 30.904C119.622 31.016 119.594 31.1 119.594 31.156C119.631 31.3053 119.724 31.52 119.874 31.8C120.023 32.0987 120.107 32.2573 120.126 32.276L119.93 32.416V33.816ZM136.161 10.268C136.179 10.2307 136.375 10.1933 136.749 10.156C137.122 10.1 137.439 10.072 137.701 10.072C137.85 10.072 138.027 10.1187 138.233 10.212C138.457 10.2867 138.569 10.3613 138.569 10.436V12.508C138.569 12.7507 138.401 12.872 138.065 12.872C137.617 12.872 137.122 12.8347 136.581 12.76C136.058 12.6853 135.797 12.5453 135.797 12.34V10.576L136.161 10.268ZM136.413 10.94C136.413 11.1267 136.45 11.3227 136.525 11.528C136.599 11.7147 136.721 11.808 136.889 11.808C137.225 11.808 137.458 11.78 137.589 11.724C137.738 11.668 137.813 11.528 137.813 11.304C137.813 11.2107 137.775 11.0893 137.701 10.94C137.645 10.9587 137.57 10.996 137.477 11.052C137.402 11.108 137.309 11.136 137.197 11.136L137.393 10.94H136.413ZM136.497 28.72C136.459 28.5893 136.375 28.4307 136.245 28.244C136.114 28.0573 136.03 27.88 135.993 27.712C135.731 26.6293 135.563 25.5 135.489 24.324C135.414 23.1293 135.377 21.72 135.377 20.096V19.2C135.377 18.024 135.479 17.128 135.685 16.512C135.89 15.896 136.338 15.588 137.029 15.588C137.719 15.588 138.186 15.8867 138.429 16.484C138.69 17.0627 138.821 17.8187 138.821 18.752C138.821 19.7787 138.746 20.908 138.597 22.14C138.466 23.092 138.401 23.932 138.401 24.66C138.401 25.1267 138.438 25.808 138.513 26.704C138.531 26.928 138.55 27.1987 138.569 27.516C138.587 27.8333 138.597 28.2067 138.597 28.636C138.597 28.9347 138.475 29.084 138.233 29.084C138.009 29.0467 137.719 28.9907 137.365 28.916C137.029 28.8413 136.739 28.776 136.497 28.72ZM136.777 17.352C137.523 17.352 137.897 17.24 137.897 17.016C137.897 16.792 137.869 16.6427 137.813 16.568C137.775 16.4933 137.691 16.456 137.561 16.456C137.523 16.456 137.439 16.4933 137.309 16.568C137.178 16.624 137.085 16.652 137.029 16.652C136.991 16.652 136.945 16.624 136.889 16.568C136.833 16.4933 136.758 16.456 136.665 16.456C136.534 16.456 136.431 16.484 136.357 16.54C136.301 16.5773 136.235 16.6707 136.161 16.82C136.31 16.9693 136.45 17.044 136.581 17.044L136.665 17.016L136.497 17.352H136.777ZM136.133 18.164C136.133 18.2013 136.151 18.248 136.189 18.304C136.245 18.3413 136.291 18.36 136.329 18.36C136.497 18.36 136.702 18.2387 136.945 17.996C137.187 17.7347 137.337 17.576 137.393 17.52H137.281C137.131 17.52 136.907 17.5667 136.609 17.66C136.31 17.7533 136.161 17.912 136.161 18.136L136.133 18.164ZM137.953 17.576C137.467 17.576 136.982 18.0053 136.497 18.864C136.758 18.7707 137.057 18.724 137.393 18.724C137.561 18.724 137.682 18.7053 137.757 18.668C137.831 18.6307 137.878 18.5373 137.897 18.388C137.934 18.22 137.953 17.9493 137.953 17.576ZM136.161 19.9C136.161 19.9373 136.179 19.984 136.217 20.04C136.273 20.0773 136.31 20.096 136.329 20.096C136.739 19.872 137.141 19.536 137.533 19.088L137.281 19.06C136.982 19.06 136.721 19.1347 136.497 19.284C136.273 19.4147 136.161 19.62 136.161 19.9ZM137.897 19.256C137.393 19.5173 137.047 19.8533 136.861 20.264L137.113 20.292C137.243 20.292 137.402 20.2827 137.589 20.264C137.794 20.2267 137.897 20.1707 137.897 20.096V19.256ZM136.861 21.86C137.701 21.86 138.121 21.4493 138.121 20.628H137.897L136.861 21.664V21.86ZM136.861 20.768C136.487 20.768 136.301 20.9267 136.301 21.244L136.329 21.524L137.029 20.796L136.861 20.768ZM137.225 22.14C136.982 22.14 136.749 22.2147 136.525 22.364C136.301 22.5133 136.189 22.7 136.189 22.924C136.394 22.924 136.618 22.8493 136.861 22.7C137.103 22.532 137.225 22.3453 137.225 22.14ZM137.701 22.336C137.626 22.3733 137.421 22.5413 137.085 22.84C136.767 23.1387 136.515 23.3813 136.329 23.568H137.701C137.813 23.568 137.878 23.456 137.897 23.232C137.934 22.9893 137.953 22.6907 137.953 22.336H137.701ZM136.329 24.24C136.329 24.4827 136.385 24.604 136.497 24.604L137.393 23.904V23.736C136.683 23.8293 136.329 23.9973 136.329 24.24ZM136.497 25.332C136.963 25.332 137.281 25.2387 137.449 25.052C137.635 24.8653 137.729 24.5387 137.729 24.072H137.533L136.497 25.108V25.332ZM136.497 25.976C136.497 26.032 136.515 26.0973 136.553 26.172C136.59 26.228 136.627 26.2747 136.665 26.312L137.393 25.64L137.113 25.612C136.758 25.612 136.553 25.7333 136.497 25.976ZM136.497 27.544C136.571 27.7493 136.721 27.88 136.945 27.936C137.187 27.9733 137.467 27.992 137.785 27.992C137.785 27.824 137.729 27.684 137.617 27.572C137.523 27.4413 137.477 27.3667 137.477 27.348C137.477 27.348 137.533 27.32 137.645 27.264C137.757 27.208 137.813 26.7787 137.813 25.976H137.393C137.355 25.976 137.215 26.1253 136.973 26.424C136.749 26.7227 136.637 26.9093 136.637 26.984V27.012H137.393L136.497 27.544ZM151.564 26.396C151.564 26.508 151.62 26.592 151.732 26.648C151.844 26.704 152.04 26.7693 152.32 26.844C152.712 26.956 153.001 27.0773 153.188 27.208C153.375 27.32 153.468 27.4973 153.468 27.74C153.468 28.5427 153.235 29.0747 152.768 29.336C152.189 29.1493 151.788 29.0373 151.564 29C151.34 28.9627 150.92 28.72 150.304 28.272C149.987 28.048 149.809 27.936 149.772 27.936C149.623 27.936 149.408 28.0293 149.128 28.216C148.867 28.4027 148.699 28.496 148.624 28.496C148.176 28.7013 147.775 28.86 147.42 28.972C147.065 29.084 146.692 29.14 146.3 29.14C145.572 29.14 144.835 28.9907 144.088 28.692C143.341 28.3933 142.716 27.9453 142.212 27.348C141.708 26.732 141.456 25.976 141.456 25.08C141.456 24.8373 141.521 24.4547 141.652 23.932C141.801 23.3907 141.932 22.9987 142.044 22.756C142.399 22.252 142.912 21.8787 143.584 21.636C144.256 21.3933 145.133 21.1787 146.216 20.992C147.075 20.824 147.691 20.6747 148.064 20.544C148.437 20.3947 148.624 20.18 148.624 19.9C148.624 19.34 148.437 18.8733 148.064 18.5C147.709 18.108 147.205 17.912 146.552 17.912C146.291 17.912 146.039 17.9493 145.796 18.024C145.553 18.0987 145.236 18.22 144.844 18.388C144.284 18.6493 143.873 18.78 143.612 18.78C143.127 18.78 142.884 18.2853 142.884 17.296C142.884 16.624 143.155 16.1853 143.696 15.98C144.237 15.756 144.937 15.644 145.796 15.644C145.964 15.644 146.179 15.6627 146.44 15.7C146.72 15.7373 146.925 15.7653 147.056 15.784C147.56 15.8773 147.971 15.924 148.288 15.924L148.932 15.896C149.399 15.896 149.632 16.0733 149.632 16.428C149.856 16.428 150.024 16.4653 150.136 16.54C150.248 16.596 150.304 16.7267 150.304 16.932C150.827 16.932 151.2 17.3613 151.424 18.22C151.648 19.0787 151.76 19.8813 151.76 20.628C151.76 21.132 151.685 21.8507 151.536 22.784C151.387 23.7173 151.312 24.408 151.312 24.856C151.312 24.968 151.331 25.136 151.368 25.36C151.405 25.5653 151.424 25.724 151.424 25.836L151.396 26.088L151.564 26.396ZM146.384 16.876C146.608 16.876 146.851 16.9133 147.112 16.988C147.355 17.0813 147.625 17.128 147.924 17.128C147.924 16.6987 147.821 16.484 147.616 16.484C147.541 16.484 147.457 16.5027 147.364 16.54C147.289 16.5587 147.205 16.568 147.112 16.568L146.384 16.54C145.768 16.54 145.292 16.568 144.956 16.624C144.62 16.6613 144.172 16.7733 143.612 16.96C143.612 17.0347 143.631 17.1467 143.668 17.296C143.724 17.4453 143.771 17.5387 143.808 17.576C144.013 17.576 144.34 17.5107 144.788 17.38C145.255 17.2307 145.553 17.0627 145.684 16.876L145.964 17.1C145.983 17.1 146.039 17.0627 146.132 16.988C146.225 16.9133 146.309 16.876 146.384 16.876ZM148.372 17.604C148.559 17.604 148.792 17.5667 149.072 17.492C149.352 17.3987 149.492 17.2867 149.492 17.156C149.492 16.9693 149.24 16.876 148.736 16.876C148.568 16.876 148.419 16.9507 148.288 17.1C148.157 17.2307 148.092 17.3893 148.092 17.576L148.372 17.604ZM149.156 18.332C149.156 18.388 149.193 18.4533 149.268 18.528C149.343 18.6027 149.427 18.64 149.52 18.64C149.781 18.64 149.959 18.6027 150.052 18.528C150.164 18.4533 150.22 18.3227 150.22 18.136C150.22 18.0053 150.164 17.856 150.052 17.688C149.959 17.52 149.847 17.436 149.716 17.436L149.156 18.332ZM150.528 18.78C150.472 18.7987 150.341 18.836 150.136 18.892C149.931 18.948 149.763 19.0413 149.632 19.172C149.52 19.284 149.464 19.424 149.464 19.592C149.819 19.592 150.173 19.3213 150.528 18.78ZM150.864 19.788C150.864 19.7133 150.827 19.6293 150.752 19.536C150.696 19.4427 150.649 19.396 150.612 19.396C150.5 19.396 150.332 19.4707 150.108 19.62C149.903 19.7507 149.753 19.8813 149.66 20.012L150.696 20.18C150.696 20.1427 150.724 20.0773 150.78 19.984C150.836 19.8907 150.864 19.8253 150.864 19.788ZM149.968 20.516L149.24 20.348L148.988 20.656L149.968 20.516ZM149.156 21.216C149.193 21.328 149.259 21.4027 149.352 21.44C149.464 21.4773 149.632 21.524 149.856 21.58C150.08 21.6173 150.239 21.664 150.332 21.72C150.22 21.9067 150.08 22.0373 149.912 22.112C149.819 22.168 149.744 22.2333 149.688 22.308C149.651 22.3827 149.632 22.532 149.632 22.756C149.632 23.0173 149.679 23.288 149.772 23.568C149.847 23.904 149.884 24.1747 149.884 24.38C149.884 24.5667 149.856 24.7907 149.8 25.052C150.211 24.9587 150.509 24.548 150.696 23.82C150.883 23.092 150.976 22.3173 150.976 21.496C150.976 21.0107 150.948 20.6747 150.892 20.488C150.705 20.488 150.425 20.572 150.052 20.74C149.697 20.908 149.399 21.0667 149.156 21.216ZM148.4 21.412C148.288 21.412 148.167 21.44 148.036 21.496C147.905 21.552 147.821 21.6267 147.784 21.72C147.877 21.7573 148.008 21.7947 148.176 21.832C148.363 21.8693 148.512 21.8973 148.624 21.916C148.68 21.8973 148.764 21.8693 148.876 21.832C148.988 21.7947 149.081 21.7573 149.156 21.72C149.063 21.664 148.932 21.608 148.764 21.552C148.596 21.4773 148.475 21.4307 148.4 21.412ZM147 21.468L146.216 21.86L147.252 21.72L147 21.468ZM143.612 23.792C143.649 23.792 143.724 23.7267 143.836 23.596C143.948 23.4467 144.004 23.344 144.004 23.288H143.248C143.323 23.176 143.463 23.0733 143.668 22.98C143.892 22.8867 144.125 22.8027 144.368 22.728C144.76 22.5973 145.077 22.476 145.32 22.364C145.563 22.2333 145.74 22.084 145.852 21.916H145.74C145.385 21.916 145.087 21.944 144.844 22C144.62 22.056 144.499 22.196 144.48 22.42C144.331 22.476 144.125 22.5507 143.864 22.644C143.621 22.7187 143.416 22.8213 143.248 22.952C143.099 23.064 142.987 23.2227 142.912 23.428C142.949 23.484 143.061 23.5587 143.248 23.652C143.435 23.7453 143.556 23.792 143.612 23.792ZM145.684 26.928C145.983 26.928 146.403 26.8533 146.944 26.704C147.485 26.5547 147.961 26.3587 148.372 26.116C148.783 25.8547 148.988 25.5653 148.988 25.248V25.136C148.988 24.2773 148.895 23.6053 148.708 23.12C148.54 22.6347 148.12 22.392 147.448 22.392C147.355 22.392 147.215 22.4387 147.028 22.532C146.841 22.6067 146.711 22.644 146.636 22.644C146.431 22.644 146.16 22.756 145.824 22.98C145.507 23.204 145.292 23.3533 145.18 23.428C145.068 23.5027 144.965 23.624 144.872 23.792C144.797 23.9413 144.723 24.0907 144.648 24.24C144.536 24.5013 144.424 24.7067 144.312 24.856C144.219 24.9867 144.088 25.052 143.92 25.052C143.92 25.6307 144.069 26.088 144.368 26.424C144.667 26.76 145.105 26.928 145.684 26.928ZM142.576 23.792C142.52 23.792 142.473 23.8667 142.436 24.016C142.399 24.1653 142.38 24.2773 142.38 24.352C142.511 24.352 142.641 24.3147 142.772 24.24C142.903 24.1653 143.015 24.0813 143.108 23.988C143.033 23.9507 142.94 23.9133 142.828 23.876C142.735 23.8387 142.651 23.8107 142.576 23.792ZM143.444 24.66C143.5 24.604 143.528 24.5107 143.528 24.38C143.528 24.3613 143.481 24.352 143.388 24.352C143.22 24.352 143.024 24.38 142.8 24.436C142.595 24.492 142.464 24.5667 142.408 24.66H143.444ZM150.584 24.94C150.435 24.94 150.285 25.0147 150.136 25.164C150.005 25.2947 149.94 25.4347 149.94 25.584C150.183 25.584 150.351 25.5373 150.444 25.444C150.537 25.3507 150.584 25.1827 150.584 24.94ZM142.576 24.996C142.52 24.996 142.445 25.0333 142.352 25.108C142.259 25.1827 142.212 25.2387 142.212 25.276L142.24 25.36C142.296 25.36 142.371 25.332 142.464 25.276C142.557 25.22 142.604 25.1733 142.604 25.136L142.576 24.996ZM143.164 25.304C142.921 25.304 142.725 25.444 142.576 25.724C142.968 25.724 143.164 25.584 143.164 25.304ZM149.66 26.2C149.679 26.2373 149.716 26.284 149.772 26.34C149.828 26.3773 149.884 26.396 149.94 26.396C150.015 26.3587 150.127 26.284 150.276 26.172C150.425 26.0413 150.5 25.948 150.5 25.892C150.5 25.836 150.463 25.808 150.388 25.808C150.276 25.808 150.136 25.8547 149.968 25.948C149.819 26.0227 149.716 26.1067 149.66 26.2ZM142.66 26.788C142.791 26.788 142.903 26.676 142.996 26.452C143.089 26.228 143.136 26.06 143.136 25.948C142.949 25.948 142.763 25.9853 142.576 26.06C142.408 26.1347 142.296 26.2467 142.24 26.396C142.259 26.4707 142.315 26.5547 142.408 26.648C142.52 26.7227 142.604 26.7693 142.66 26.788ZM150.276 26.9C150.276 26.956 150.295 27.012 150.332 27.068C150.388 27.124 150.435 27.152 150.472 27.152C150.789 27.152 150.948 26.9093 150.948 26.424C150.836 26.424 150.696 26.4707 150.528 26.564C150.36 26.6573 150.276 26.7693 150.276 26.9ZM143.108 26.9C143.388 26.8627 143.528 26.732 143.528 26.508C143.285 26.508 143.145 26.6387 143.108 26.9ZM148.456 27.656C148.643 27.656 148.811 27.572 148.96 27.404C149.109 27.2173 149.184 27.0213 149.184 26.816L149.156 26.564C149.1 26.5827 149.025 26.6387 148.932 26.732C148.857 26.8253 148.811 26.8907 148.792 26.928C148.792 26.9653 148.801 27.0027 148.82 27.04C148.839 27.0587 148.848 27.068 148.848 27.068H148.456V27.656ZM147.924 27.964C147.961 27.964 147.999 27.8707 148.036 27.684C148.073 27.4787 148.101 27.3293 148.12 27.236C147.821 27.236 147.513 27.3387 147.196 27.544C146.879 27.7307 146.72 27.9733 146.72 28.272L147.924 27.964ZM150.78 27.824C150.929 27.7307 151.004 27.6093 151.004 27.46H150.584C150.584 27.628 150.649 27.7493 150.78 27.824ZM151.256 27.908C151.573 27.908 151.76 27.8427 151.816 27.712C151.723 27.5627 151.639 27.488 151.564 27.488C151.471 27.488 151.396 27.5347 151.34 27.628C151.284 27.7213 151.256 27.8147 151.256 27.908ZM144.116 27.796C144.191 27.8333 144.321 27.908 144.508 28.02C144.713 28.1133 144.863 28.16 144.956 28.16C144.956 28.0667 144.881 27.9453 144.732 27.796C144.601 27.6467 144.499 27.572 144.424 27.572C144.293 27.572 144.191 27.6467 144.116 27.796ZM145.936 28.496C146.011 28.496 146.067 28.44 146.104 28.328C146.16 28.1973 146.188 28.076 146.188 27.964L146.048 27.936C145.824 27.936 145.647 28.048 145.516 28.272C145.759 28.4213 145.899 28.496 145.936 28.496ZM151.564 28.272C151.564 28.4587 151.919 28.552 152.628 28.552C152.628 28.384 152.609 28.244 152.572 28.132C152.553 28.02 152.479 27.964 152.348 27.964C152.199 27.964 152.04 27.992 151.872 28.048C151.723 28.104 151.62 28.1787 151.564 28.272Z" fill="#7474F7"/>
<path d="M28.6881 34.065C31.4325 32.3126 31.585 32.4645 30.1365 33.5315C28.6881 34.5976 31.2801 33.0744 29.9081 34.065L29.2983 34.6745C29.2983 34.6745 28.3072 35.8174 27.621 35.8934C26.9348 35.9693 28.3828 35.8174 27.3921 36.2749C26.401 36.7316 19.1504 40.0013 7.41882 31.4744C10.6974 36.9603 16.4908 39.3986 21.3699 39.4745C21.3699 39.4745 19.8446 39.4745 20.6837 39.6269C21.5223 39.7793 20.3023 40.9218 13.1362 38.2556C13.4419 38.9411 13.5179 39.1694 14.3566 39.6269C14.3566 39.6269 4.97928 36.4264 1.70191 26.979C1.77792 28.1215 1.85394 29.4173 1.85394 29.4173C1.85394 29.4173 -2.87313 21.0356 2.76903 10.6736C8.41035 0.311541 20.8365 -0.0691584 22.5134 0.00681371C24.1908 0.0827858 33.5668 2.2163 35.7014 4.42621C37.8365 6.63528 34.6347 5.18803 34.6347 5.18803C34.6347 5.18803 33.5668 5.79748 35.3209 6.71125C37.0739 7.62627 38.9796 10.6736 37.5308 9.53061C36.0828 8.38809 38.217 10.9023 38.4459 11.0547C38.6743 11.207 35.2441 9.53061 36.1592 10.5212C37.0739 11.5113 41.0379 15.8548 39.7423 17.1505C38.4459 18.4454 37.9881 14.8642 37.7597 14.6359C37.5308 14.4067 38.1418 19.893 37.7597 20.8068C37.3783 21.7214 37.4548 18.7505 36.693 17.8359C35.9307 16.9217 35.7014 16.9977 35.1677 16.9977C34.6347 16.9977 33.1863 15.5505 33.0334 14.7118C32.881 13.8736 32.4236 13.6449 31.737 12.9594C31.0512 12.2736 29.9841 11.5882 28.6881 11.6641C27.3921 11.7405 28.0783 10.1401 25.8672 10.1401C23.6566 10.1401 22.3601 9.75979 20.4548 10.5976C18.5494 11.4358 15.0424 12.4259 14.737 12.5019C14.4321 12.5783 17.9388 10.5976 18.473 10.2924C19.0064 9.98812 10.1633 12.2736 8.71482 15.7784C7.26596 19.284 5.9708 25.3026 10.9259 30.7881C15.881 36.2749 24.7237 36.8075 28.6881 34.065Z" fill="#7474F7"/>
</svg>
